M48
; DRILL file {KiCad 7.0.8} date Mon Jan 15 11:32:42 2024
; FORMAT={-:-/ absolute / metric / decimal}
; #@! TF.CreationDate,2024-01-15T11:32:42+01:00
; #@! TF.GenerationSoftware,Kicad,Pcbnew,7.0.8
; #@! TF.FileFunction,Plated,1,2,PTH
FMAT,2
METRIC
; #@! TA.AperFunction,Plated,PTH,ComponentDrill
T1C0.600
; #@! TA.AperFunction,Plated,PTH,ComponentDrill
T2C0.800
; #@! TA.AperFunction,Plated,PTH,ComponentDrill
T3C0.900
; #@! TA.AperFunction,Plated,PTH,ComponentDrill
T4C1.000
; #@! TA.AperFunction,Plated,PTH,ComponentDrill
T5C1.100
; #@! TA.AperFunction,Plated,PTH,ComponentDrill
T6C1.200
; #@! TA.AperFunction,Plated,PTH,ComponentDrill
T7C1.300
%
G90
G05
T1
X75.18Y62.91
X75.18Y60.91
X96.77Y50.75
X96.77Y48.75
T2
X15.49Y24.11
X15.49Y22.11
X15.49Y20.11
X15.49Y18.11
X15.49Y16.11
X15.49Y14.11
X15.49Y12.11
X15.49Y10.11
X39.62Y28.46
X39.62Y26.46
X39.62Y24.46
X39.62Y22.46
X39.62Y20.46
X39.62Y18.46
X39.62Y16.46
X39.62Y14.46
X47.24Y48.59
X47.24Y46.59
X47.24Y44.59
X47.24Y42.59
X47.24Y40.59
X47.24Y38.59
X47.24Y36.59
X47.24Y34.59
X61.21Y43.54
X61.21Y41.54
X61.21Y39.54
X61.21Y37.54
X61.21Y35.54
X61.21Y33.54
X61.21Y31.54
X61.21Y29.54
X61.21Y27.54
X61.21Y25.54
X61.21Y23.54
X61.21Y21.54
X89.15Y42.62
X89.15Y40.62
X89.15Y38.62
X89.15Y36.62
X89.15Y34.62
X89.15Y32.62
X89.15Y30.62
X89.15Y28.62
X89.15Y26.62
X89.15Y24.62
X89.15Y22.62
X89.15Y20.62
T3
X77.72Y7.57
X77.72Y5.03
T4
X9.14Y41.86
X9.14Y39.32
X9.14Y36.78
X9.14Y32.97
X9.14Y30.43
X9.14Y27.89
X11.68Y63.45
X11.68Y60.91
X12.95Y49.48
X12.95Y45.67
X15.49Y49.48
X15.49Y45.67
X15.49Y30.43
X18.03Y49.48
X18.03Y45.67
X18.03Y30.43
X20.57Y30.43
X20.57Y25.35
X20.57Y22.81
X20.57Y20.27
X20.57Y17.73
X20.57Y15.19
X20.57Y12.65
X20.57Y10.11
X20.57Y7.57
X23.11Y25.35
X23.11Y22.81
X23.11Y20.27
X23.11Y17.73
X23.11Y15.19
X23.11Y12.65
X23.11Y10.11
X23.11Y7.57
X24.38Y64.72
X24.38Y62.18
X24.38Y59.64
X26.92Y64.72
X26.92Y62.18
X26.92Y59.64
X33.27Y63.45
X33.27Y60.91
X33.27Y58.37
X33.27Y55.83
X33.27Y53.29
X33.27Y50.75
X33.27Y48.21
X33.27Y45.67
X33.27Y43.13
X33.27Y40.59
X33.27Y38.05
X33.27Y35.51
X33.27Y32.97
X33.27Y30.43
X33.27Y27.89
X33.27Y25.35
X33.27Y22.81
X33.27Y20.27
X33.27Y17.73
X33.27Y15.19
X33.27Y12.65
X35.81Y63.45
X35.81Y60.91
X35.81Y58.37
X35.81Y55.83
X35.81Y53.29
X35.81Y50.75
X35.81Y48.21
X35.81Y45.67
X35.81Y43.13
X35.81Y40.59
X35.81Y38.05
X35.81Y35.51
X35.81Y32.97
X35.81Y30.43
X35.81Y27.89
X35.81Y25.35
X35.81Y22.81
X35.81Y20.27
X35.81Y17.73
X35.81Y15.19
X35.81Y12.65
X45.97Y15.19
X45.97Y12.65
X48.51Y15.19
X48.51Y12.65
X51.05Y15.19
X51.05Y12.65
X56.13Y6.3
X58.67Y15.19
X58.67Y12.65
X58.67Y6.3
X61.21Y15.19
X61.21Y12.65
X61.21Y6.3
X63.75Y15.19
X63.75Y12.65
X63.75Y6.3
X66.29Y50.75
X66.29Y48.21
X66.29Y45.67
X66.29Y43.13
X66.29Y40.59
X66.29Y38.05
X66.29Y35.51
X66.29Y32.97
X66.29Y30.43
X66.29Y27.89
X66.29Y25.35
X66.29Y22.81
X66.29Y20.27
X66.29Y17.73
X66.29Y15.19
X66.29Y12.65
X66.29Y6.3
X68.83Y50.75
X68.83Y48.21
X68.83Y45.67
X68.83Y43.13
X68.83Y40.59
X68.83Y38.05
X68.83Y35.51
X68.83Y32.97
X68.83Y30.43
X68.83Y27.89
X68.83Y25.35
X68.83Y22.81
X68.83Y20.27
X68.83Y17.73
X68.83Y15.19
X68.83Y12.65
X68.83Y6.3
X81.515Y49.455
X81.53Y45.67
X81.53Y43.13
X81.53Y40.59
X81.53Y38.05
X81.53Y35.51
X81.53Y32.97
X81.53Y30.43
X81.53Y27.89
X81.53Y25.35
X81.53Y22.81
X81.53Y20.27
X81.53Y17.73
X84.055Y49.455
X84.07Y45.67
X84.07Y43.13
X84.07Y40.59
X84.07Y38.05
X84.07Y35.51
X84.07Y32.97
X84.07Y30.43
X84.07Y27.89
X84.07Y25.35
X84.07Y22.81
X84.07Y20.27
X84.07Y17.73
X86.595Y49.455
X98.04Y59.64
X98.04Y57.1
T5
X4.06Y39.32
X15.49Y60.91
X29.46Y53.29
X40.89Y55.83
X48.51Y56.17
X66.29Y2.49
X89.15Y8.84
X90.42Y49.48
T6
X6.6Y54.56
X14.22Y39.32
X14.22Y35.51
X19.3Y54.56
X23.11Y55.83
X23.11Y43.13
X26.92Y39.32
X26.92Y35.51
X76.45Y12.65
X89.15Y12.65
T7
X81.53Y59.335
X86.61Y59.335
X91.69Y59.335
T0
M30
